<?xml version="1.0" encoding="utf-8"?>
<!-- Generator: Adobe Illustrator 19.0.1, SVG Export Plug-In . SVG Version: 6.00 Build 0)  -->
<svg version="1.1" id="Layer_1" xmlns="http://www.w3.org/2000/svg" xmlns:xlink="http://www.w3.org/1999/xlink" x="0px" y="0px"
	 viewBox="46.5 -2.8 43 48.6" style="enable-background:new 46.5 -2.8 43 48.6;" xml:space="preserve">
<style type="text/css">
	.st0{fill:#0097D0;}
</style>
<path class="st0" d="M46.9,12.9v28.8c0,2.2,1.7,3.9,3.8,3.9h34.6c2.1,0,3.8-1.7,3.8-3.9V12.9H46.9z M57.4,42.7h-7.7V35h7.7V42.7z
	 M57.4,33.1h-7.7v-7.7h7.7V33.1z M57.4,23.5h-7.7v-7.7h7.7V23.5z M67,42.7h-7.7V35H67V42.7z M67,33.1h-7.7v-7.7H67V33.1z M67,23.5
	h-7.7v-7.7H67V23.5z M76.6,42.7H69V35h7.7V42.7z M76.6,33.1H69v-7.7h7.7V33.1z M76.6,23.5H69v-7.7h7.7V23.5z M86.2,42.7h-7.7V35h7.7
	V42.7z M86.2,33.1h-7.7v-7.7h7.7V33.1z M86.2,23.5h-7.7v-7.7h7.7V23.5z"/>
<path class="st0" d="M85.3,3.3H79V-1c0-0.8-0.6-1.4-1.4-1.4c-0.8,0-1.4,0.6-1.4,1.4v4.3H59.8V-1c0-0.8-0.6-1.4-1.4-1.4
	C57.6-2.4,57-1.8,57-1v4.3h-6.2c-2.1,0-3.8,1.7-3.8,3.9v3.3l0,0V11h42.2v-0.5l0,0V7.2C89.1,5.1,87.4,3.3,85.3,3.3z M58.4,10
	c-1.6,0-2.9-1.3-2.9-2.9c0-1.1,0.6-2,1.4-2.5v2.5c0,0.8,0.6,1.4,1.4,1.4c0.8,0,1.4-0.6,1.4-1.4V4.7c0.9,0.5,1.4,1.4,1.4,2.5
	C61.3,8.7,60,10,58.4,10z M77.6,10c-1.6,0-2.9-1.3-2.9-2.9c0-1.1,0.6-2,1.4-2.5v2.5c0,0.8,0.6,1.4,1.4,1.4C78.4,8.6,79,8,79,7.2V4.7
	c0.9,0.5,1.4,1.4,1.4,2.5C80.5,8.7,79.2,10,77.6,10z"/>
</svg>
